<svg width="401" height="401" viewBox="0 0 401 401" fill="none" xmlns="http://www.w3.org/2000/svg">
<path d="M200.398 400.322C160.762 400.322 122.017 388.582 89.0608 366.587C56.105 344.592 30.4194 313.33 15.2524 276.754C0.085373 240.178 -3.8819 199.932 3.8523 161.104C11.5865 122.276 30.6748 86.6103 58.7032 58.6181C86.7316 30.626 122.441 11.5642 161.316 3.84345C200.191 -3.87733 240.485 0.0896611 277.103 15.2427C313.72 30.3958 345.017 56.0544 367.034 88.9736C389.052 121.893 400.801 160.594 400.797 200.183C400.791 253.265 379.675 304.171 342.094 341.704C304.512 379.237 253.544 400.322 200.398 400.322Z" fill="#440066"/>
<path d="M213.824 95.0332C217.166 84.8185 228.133 79.2231 238.347 82.5654C245.933 85.044 250.965 91.7666 251.641 99.2773C251.904 101.831 251.642 104.497 250.778 107.126L249.651 110.618L236.995 149.299L233.315 160.603L185.884 305.787C182.542 316.002 171.576 321.56 161.361 318.218C153.024 315.476 147.767 307.703 147.917 299.403C147.917 297.526 148.292 295.572 148.893 293.694L150.696 288.212L163.389 249.306L167.107 237.965L213.824 95.0332ZM257.052 124.285C258.142 120.905 262.273 119.629 265.127 121.77L345.717 182.907L345.793 182.87C351.2 186.963 353.867 193.347 353.454 199.656C353.867 205.928 351.2 212.312 345.793 216.405L253.898 286.106C245.786 292.265 234.032 291.814 227.16 284.341C219.236 275.778 220.625 262.485 229.675 255.612L303.469 199.656L249.505 158.723C247.702 157.408 247.026 155.08 247.702 152.977L257.052 124.285ZM148.327 112.716C157.377 105.843 170.484 108.059 176.643 117.974V118.011C181.976 126.648 179.271 138.065 171.16 144.224L98.0046 199.728L150.956 239.874C152.758 241.188 153.434 243.517 152.758 245.62L143.37 274.311C142.28 277.691 138.15 278.968 135.296 276.827L55.7184 216.44C50.3108 212.347 47.6443 205.963 48.0573 199.691C47.6442 193.382 50.3107 186.998 55.7184 182.904L148.327 112.716Z" fill="#80FF73"/>
</svg>
